<?xml version="1.0" encoding="UTF-8"?>
<svg xmlns="http://www.w3.org/2000/svg" xmlns:xlink="http://www.w3.org/1999/xlink" width="18px" height="18px" viewBox="0 0 18 18" version="1.1">
<g id="surface1">
<path style=" stroke:none;fill-rule:nonzero;fill:rgb(0%,0%,0%);fill-opacity:1;" d="M 9 13.898438 C 6.976562 13.898438 4.796875 13.105469 2.699219 11.609375 C 1.132812 10.488281 0.164062 9.378906 0.125 9.332031 C -0.0429688 9.140625 -0.0429688 8.859375 0.125 8.667969 C 0.164062 8.621094 1.132812 7.511719 2.699219 6.390625 C 4.796875 4.894531 6.976562 4.101562 9 4.101562 C 11.023438 4.101562 13.203125 4.894531 15.300781 6.390625 C 16.867188 7.511719 17.835938 8.621094 17.875 8.667969 C 18.042969 8.859375 18.042969 9.140625 17.875 9.332031 C 17.835938 9.378906 16.867188 10.488281 15.300781 11.609375 C 13.203125 13.105469 11.023438 13.898438 9 13.898438 Z M 1.207031 9 C 1.597656 9.398438 2.335938 10.101562 3.3125 10.792969 C 4.648438 11.746094 6.722656 12.878906 9 12.878906 C 11.277344 12.878906 13.351562 11.746094 14.6875 10.792969 C 15.664062 10.101562 16.402344 9.398438 16.792969 9 C 16.402344 8.601562 15.664062 7.898438 14.6875 7.207031 C 13.351562 6.253906 11.277344 5.121094 9 5.121094 C 6.722656 5.121094 4.648438 6.253906 3.3125 7.207031 C 2.335938 7.898438 1.597656 8.601562 1.207031 9 Z M 1.207031 9 "/>
<path style=" stroke:none;fill-rule:nonzero;fill:rgb(0%,0%,0%);fill-opacity:1;" d="M 9 12.15625 C 7.261719 12.15625 5.84375 10.738281 5.84375 9 C 5.84375 7.261719 7.261719 5.84375 9 5.84375 C 9.765625 5.84375 10.503906 6.121094 11.078125 6.625 C 11.289062 6.8125 11.3125 7.132812 11.125 7.34375 C 10.941406 7.554688 10.621094 7.578125 10.40625 7.390625 C 10.019531 7.050781 9.519531 6.863281 9 6.863281 C 7.820312 6.863281 6.863281 7.820312 6.863281 9 C 6.863281 10.179688 7.820312 11.136719 9 11.136719 C 10.179688 11.136719 11.136719 10.179688 11.136719 9 C 11.136719 8.71875 11.367188 8.492188 11.648438 8.492188 C 11.929688 8.492188 12.15625 8.71875 12.15625 9 C 12.15625 10.738281 10.738281 12.15625 9 12.15625 Z M 9 12.15625 "/>
<path style=" stroke:none;fill-rule:nonzero;fill:rgb(0%,0%,0%);fill-opacity:1;" d="M 9 10.019531 C 8.4375 10.019531 7.980469 9.5625 7.980469 9 C 7.980469 8.4375 8.4375 7.980469 9 7.980469 C 9.5625 7.980469 10.019531 8.4375 10.019531 9 C 10.019531 9.5625 9.5625 10.019531 9 10.019531 Z M 9 10.019531 "/>
</g>
</svg>
